# xmcd
#
# Track frame offsets:
#	150
#	14949
#	31511
#	53140
#	69370
#	86782
#	105513
#	118256
#	150792
#	167560
#	187028
#
# Disc length: 2753 seconds
#
# Revision: 1
# Processed by: cddbd v1.5.1PL0 Copyright (c) Steve Scherf et al.
# Submitted via: audiograbber 1.83.01
#
DISCID=850abf0b
DTITLE=Greg Koch - 4 Days in the South
DYEAR=2005
DGENRE=Blues
TTITLE0=Bored to Tears
TTITLE1=When were the good old Days?
TTITLE2=Can't get there from here
TTITLE3=Your Face
TTITLE4=Thems the Breaks
TTITLE5=Fool's Good
TTITLE6=Keep on Singin'
TTITLE7=The Love Contractor
TTITLE8=Folsome Prison Blues
TTITLE9=Chicken from Hell
TTITLE10=JSK
EXTD=Featuring: Roscoe Beck, Willy Porter, Steven Cohen
EXTT0=
EXTT1=
EXTT2=
EXTT3=
EXTT4=
EXTT5=
EXTT6=
EXTT7=
EXTT8=
EXTT9=
EXTT10=
PLAYORDER=
